<svg width="93" height="76" viewBox="0 0 93 76" fill="none" xmlns="http://www.w3.org/2000/svg">
<path d="M0 4C0 1.79086 1.79086 0 4 0H89C91.2091 0 93 1.79086 93 4V72C93 74.2091 91.2091 76 89 76H4C1.79086 76 0 74.2091 0 72V4Z" fill="#F5F5F5"/>
<path d="M26.8099 15.008H29.8819L31.8259 20.648L33.7939 15.008H36.8419L33.9139 22.76L36.0739 28.184L40.8979 14.96H44.4979L37.6819 32H34.8259L31.8259 24.848L28.8499 32H25.9939L19.2019 14.96H22.7539L27.6019 28.184L29.7139 22.76L26.8099 15.008ZM50.796 32.24C49.788 32.24 48.876 32.072 48.06 31.736C47.244 31.384 46.548 30.912 45.972 30.32C45.396 29.712 44.948 29.024 44.628 28.256C44.324 27.472 44.172 26.648 44.172 25.784C44.172 24.584 44.436 23.488 44.964 22.496C45.508 21.504 46.276 20.712 47.268 20.12C48.276 19.512 49.46 19.208 50.82 19.208C52.196 19.208 53.372 19.512 54.348 20.12C55.324 20.712 56.068 21.504 56.58 22.496C57.108 23.472 57.372 24.528 57.372 25.664C57.372 25.856 57.364 26.056 57.348 26.264C57.332 26.456 57.316 26.616 57.3 26.744H47.58C47.644 27.384 47.828 27.944 48.132 28.424C48.452 28.904 48.852 29.272 49.332 29.528C49.828 29.768 50.356 29.888 50.916 29.888C51.556 29.888 52.156 29.736 52.716 29.432C53.292 29.112 53.684 28.696 53.892 28.184L56.652 28.952C56.348 29.592 55.908 30.16 55.332 30.656C54.772 31.152 54.108 31.544 53.34 31.832C52.572 32.104 51.724 32.24 50.796 32.24ZM47.508 24.704H54.084C54.02 24.064 53.836 23.512 53.532 23.048C53.244 22.568 52.86 22.2 52.38 21.944C51.9 21.672 51.364 21.536 50.772 21.536C50.196 21.536 49.668 21.672 49.188 21.944C48.724 22.2 48.34 22.568 48.036 23.048C47.748 23.512 47.572 24.064 47.508 24.704ZM67.2032 32.24C66.2432 32.24 65.3872 32.024 64.6352 31.592C63.8832 31.16 63.2912 30.568 62.8592 29.816V32H60.0512V14.48H63.2672V21.632C63.7152 20.88 64.2992 20.288 65.0192 19.856C65.7552 19.424 66.6112 19.208 67.5872 19.208C68.4032 19.208 69.1472 19.384 69.8192 19.736C70.4912 20.072 71.0672 20.544 71.5472 21.152C72.0432 21.76 72.4192 22.456 72.6752 23.24C72.9472 24.024 73.0832 24.864 73.0832 25.76C73.0832 26.656 72.9312 27.496 72.6272 28.28C72.3392 29.064 71.9312 29.76 71.4032 30.368C70.8752 30.96 70.2512 31.424 69.5312 31.76C68.8272 32.08 68.0512 32.24 67.2032 32.24ZM66.3152 29.504C66.8272 29.504 67.2912 29.408 67.7072 29.216C68.1392 29.008 68.5072 28.736 68.8112 28.4C69.1312 28.064 69.3712 27.672 69.5312 27.224C69.7072 26.76 69.7952 26.28 69.7952 25.784C69.7952 25.096 69.6512 24.464 69.3632 23.888C69.0912 23.296 68.7072 22.824 68.2112 22.472C67.7312 22.12 67.1632 21.944 66.5072 21.944C66.0432 21.944 65.5952 22.056 65.1632 22.28C64.7472 22.488 64.3712 22.776 64.0352 23.144C63.7152 23.512 63.4592 23.928 63.2672 24.392V27.392C63.3632 27.712 63.5152 28 63.7232 28.256C63.9472 28.512 64.2032 28.736 64.4912 28.928C64.7792 29.104 65.0752 29.248 65.3792 29.36C65.6992 29.456 66.0112 29.504 66.3152 29.504Z" fill="#2196F3"/>
<path d="M19.3155 47.424C19.2035 47.312 18.9955 47.16 18.6915 46.968C18.4035 46.776 18.0435 46.592 17.6115 46.416C17.1955 46.24 16.7395 46.088 16.2435 45.96C15.7475 45.816 15.2435 45.744 14.7315 45.744C13.8355 45.744 13.1555 45.912 12.6915 46.248C12.2435 46.584 12.0195 47.056 12.0195 47.664C12.0195 48.128 12.1635 48.496 12.4515 48.768C12.7395 49.04 13.1715 49.272 13.7475 49.464C14.3235 49.656 15.0435 49.864 15.9075 50.088C17.0275 50.36 17.9955 50.696 18.8115 51.096C19.6435 51.48 20.2755 51.992 20.7075 52.632C21.1555 53.256 21.3795 54.088 21.3795 55.128C21.3795 56.04 21.2115 56.824 20.8755 57.48C20.5395 58.12 20.0755 58.64 19.4835 59.04C18.8915 59.44 18.2195 59.736 17.4675 59.928C16.7155 60.104 15.9155 60.192 15.0675 60.192C14.2195 60.192 13.3715 60.104 12.5235 59.928C11.6755 59.752 10.8595 59.504 10.0755 59.184C9.2915 58.848 8.5715 58.448 7.9155 57.984L9.3795 55.128C9.5235 55.272 9.7795 55.464 10.1475 55.704C10.5155 55.928 10.9635 56.16 11.4915 56.4C12.0195 56.624 12.5955 56.816 13.2195 56.976C13.8435 57.136 14.4755 57.216 15.1155 57.216C16.0115 57.216 16.6915 57.064 17.1555 56.76C17.6195 56.456 17.8515 56.024 17.8515 55.464C17.8515 54.952 17.6675 54.552 17.2995 54.264C16.9315 53.976 16.4195 53.728 15.7635 53.52C15.1075 53.296 14.3315 53.056 13.4355 52.8C12.3635 52.496 11.4675 52.16 10.7475 51.792C10.0275 51.408 9.4915 50.928 9.1395 50.352C8.7875 49.776 8.6115 49.056 8.6115 48.192C8.6115 47.024 8.8835 46.048 9.4275 45.264C9.9875 44.464 10.7395 43.864 11.6835 43.464C12.6275 43.048 13.6755 42.84 14.8275 42.84C15.6275 42.84 16.3795 42.928 17.0835 43.104C17.8035 43.28 18.4755 43.512 19.0995 43.8C19.7235 44.088 20.2835 44.4 20.7795 44.736L19.3155 47.424ZM31.545 59.352C31.273 59.464 30.945 59.592 30.561 59.736C30.177 59.88 29.761 59.992 29.313 60.072C28.881 60.168 28.441 60.216 27.993 60.216C27.401 60.216 26.857 60.112 26.361 59.904C25.865 59.696 25.465 59.368 25.161 58.92C24.873 58.456 24.729 57.856 24.729 57.12V49.896H23.073V47.424H24.729V43.344H27.945V47.424H30.585V49.896H27.945V56.04C27.961 56.472 28.081 56.784 28.305 56.976C28.529 57.168 28.809 57.264 29.145 57.264C29.481 57.264 29.809 57.208 30.129 57.096C30.449 56.984 30.705 56.888 30.897 56.808L31.545 59.352ZM33.8199 55.296V47.424H37.0359V54.6C37.0359 55.56 37.2119 56.288 37.5639 56.784C37.9159 57.264 38.4359 57.504 39.1239 57.504C39.5399 57.504 39.9479 57.424 40.3479 57.264C40.7639 57.088 41.1399 56.832 41.4759 56.496C41.8279 56.16 42.1239 55.736 42.3639 55.224V47.424H45.5799V56.4C45.5799 56.736 45.6359 56.976 45.7479 57.12C45.8759 57.264 46.0759 57.352 46.3479 57.384V60C46.0279 60.048 45.7559 60.08 45.5319 60.096C45.3239 60.128 45.1319 60.144 44.9559 60.144C44.3799 60.144 43.9079 60.016 43.5399 59.76C43.1879 59.488 42.9799 59.12 42.9159 58.656L42.8439 57.648C42.2839 58.496 41.5639 59.144 40.6839 59.592C39.8039 60.024 38.8359 60.24 37.7799 60.24C36.4839 60.24 35.4999 59.824 34.8279 58.992C34.1559 58.144 33.8199 56.912 33.8199 55.296ZM48.7279 53.712C48.7279 52.496 48.9679 51.4 49.4479 50.424C49.9279 49.432 50.5919 48.648 51.4399 48.072C52.2879 47.496 53.2559 47.208 54.3439 47.208C55.2719 47.208 56.1039 47.44 56.8399 47.904C57.5919 48.352 58.1759 48.928 58.5919 49.632V42.48H61.8079V56.4C61.8079 56.736 61.8639 56.976 61.9759 57.12C62.0879 57.264 62.2799 57.352 62.5519 57.384V60C61.9919 60.112 61.5359 60.168 61.1839 60.168C60.6079 60.168 60.1279 60.024 59.7439 59.736C59.3759 59.448 59.1679 59.072 59.1199 58.608L59.0719 57.816C58.6079 58.6 57.9759 59.2 57.1759 59.616C56.3919 60.032 55.5679 60.24 54.7039 60.24C53.8399 60.24 53.0399 60.072 52.3039 59.736C51.5839 59.4 50.9519 58.936 50.4079 58.344C49.8799 57.752 49.4639 57.064 49.1599 56.28C48.8719 55.48 48.7279 54.624 48.7279 53.712ZM58.5919 55.392V52.392C58.4319 51.928 58.1759 51.512 57.8239 51.144C57.4719 50.776 57.0799 50.488 56.6479 50.28C56.2159 50.056 55.7839 49.944 55.3519 49.944C54.8559 49.944 54.4079 50.048 54.0079 50.256C53.6079 50.464 53.2559 50.744 52.9519 51.096C52.6639 51.448 52.4399 51.856 52.2799 52.32C52.1359 52.784 52.0639 53.272 52.0639 53.784C52.0639 54.296 52.1439 54.784 52.3039 55.248C52.4799 55.696 52.7279 56.088 53.0479 56.424C53.3679 56.76 53.7359 57.024 54.1519 57.216C54.5839 57.408 55.0479 57.504 55.5439 57.504C55.8479 57.504 56.1519 57.456 56.4559 57.36C56.7759 57.248 57.0719 57.104 57.3439 56.928C57.6319 56.736 57.8799 56.512 58.0879 56.256C58.3119 55.984 58.4799 55.696 58.5919 55.392ZM65.6846 60V47.424H68.9006V60H65.6846ZM65.6846 45.672V42.48H68.9006V45.672H65.6846ZM78.3298 60.24C77.3058 60.24 76.3858 60.072 75.5698 59.736C74.7538 59.384 74.0578 58.904 73.4818 58.296C72.9218 57.688 72.4898 56.992 72.1858 56.208C71.8818 55.424 71.7298 54.6 71.7298 53.736C71.7298 52.856 71.8818 52.024 72.1858 51.24C72.4898 50.456 72.9218 49.76 73.4818 49.152C74.0578 48.544 74.7538 48.072 75.5698 47.736C76.3858 47.384 77.3058 47.208 78.3298 47.208C79.3538 47.208 80.2658 47.384 81.0658 47.736C81.8818 48.072 82.5778 48.544 83.1538 49.152C83.7298 49.76 84.1618 50.456 84.4498 51.24C84.7538 52.024 84.9058 52.856 84.9058 53.736C84.9058 54.6 84.7538 55.424 84.4498 56.208C84.1618 56.992 83.7298 57.688 83.1538 58.296C82.5938 58.904 81.9058 59.384 81.0898 59.736C80.2738 60.072 79.3538 60.24 78.3298 60.24ZM75.0418 53.736C75.0418 54.472 75.1858 55.128 75.4738 55.704C75.7618 56.264 76.1538 56.704 76.6498 57.024C77.1458 57.344 77.7058 57.504 78.3298 57.504C78.9378 57.504 79.4898 57.344 79.9858 57.024C80.4818 56.688 80.8738 56.24 81.1618 55.68C81.4658 55.104 81.6178 54.448 81.6178 53.712C81.6178 52.992 81.4658 52.344 81.1618 51.768C80.8738 51.192 80.4818 50.744 79.9858 50.424C79.4898 50.104 78.9378 49.944 78.3298 49.944C77.7058 49.944 77.1458 50.112 76.6498 50.448C76.1538 50.768 75.7618 51.216 75.4738 51.792C75.1858 52.352 75.0418 53 75.0418 53.736Z" fill="#212121"/>
</svg>
